<svg width="36" height="40" viewBox="0 0 36 40" fill="none" xmlns="http://www.w3.org/2000/svg">
<path d="M15.1551 39.4169L0.645815 30.9874C0.277217 30.7743 0.048747 30.3784 0.048747 29.9551L6.90655e-06 13.1783C-0.00303935 12.2526 1.00223 11.6709 1.80339 12.1368L16.3127 20.5663C16.6813 20.7795 16.9098 21.1754 16.9098 21.5987L16.9585 38.3754C16.9616 39.3012 15.9563 39.8798 15.1551 39.4169Z" fill="#662D8F"/>
<path d="M17.2895 19.1179L2.76797 10.6823C1.96985 10.2194 1.97289 9.06827 2.77101 8.60538L17.3992 0.16065C17.7708 -0.0555692 18.2308 -0.0525243 18.6024 0.163695L33.124 8.59929C33.9221 9.06218 33.919 10.2133 33.1209 10.6762L18.4928 19.1209C18.1211 19.3372 17.6611 19.3341 17.2895 19.1179Z" fill="#4A9FE0"/>
<path d="M35.8616 13.1507L35.9103 29.9426C35.9103 30.372 35.6818 30.771 35.3102 30.9841L20.6821 39.4288C19.884 39.8887 18.8848 39.3162 18.8817 38.3934L18.833 21.6015C18.833 21.1721 19.0615 20.7731 19.4331 20.56L34.0612 12.1153C34.8593 11.6554 35.8585 12.2279 35.8616 13.1507Z" fill="#FF9D00"/>
<path d="M11.5987 22.6353L11.5682 33.3062L9.47239 32.0972L9.48458 27.6327L6.02403 25.635L6.01184 30.0995L3.91602 28.8905L3.94648 18.2227L6.0423 19.4317L6.03012 23.5307L9.49067 25.5284L9.50285 21.4264L11.5987 22.6353Z" fill="white"/>
<path d="M19.3396 3.9375L25.7124 10.1622L23.6288 11.3742L19.2208 9.66274C18.1942 9.25771 17.253 8.87704 16.1746 8.37151C16.9636 9.03235 17.6368 9.58356 18.3009 10.1987L21.1796 12.7964L19.0716 14.0206L8.47363 10.2505L10.536 9.05367L14.7032 10.7134C15.9217 11.1976 17.2042 11.7336 18.2095 12.1538C17.4479 11.5234 16.6193 10.8108 15.7664 10.0708L12.9882 7.63454L15.0353 6.44686L19.3305 8.13702C20.5246 8.606 21.5786 9.05367 22.657 9.53179C21.8559 8.89227 21.0395 8.20402 20.1865 7.50664L17.3839 5.08255L19.3396 3.9375Z" fill="white"/>
<path d="M28.66 19.8398C29.8115 19.1759 30.634 18.9597 31.2341 18.9414L30.7314 21.329C30.3415 21.329 29.6074 21.4264 28.6386 21.9867C27.6517 22.5562 27.1764 23.3632 27.1764 23.9479C27.1795 24.688 27.7309 24.6941 29.0499 24.4992C30.8289 24.2312 31.6575 24.8189 31.6606 26.4482C31.6666 28.3881 30.3872 30.7786 27.6181 32.3744C26.4667 33.0383 25.3304 33.3337 24.7607 33.3002L25.2177 30.8852C25.8148 30.9005 26.7743 30.7086 27.7461 30.1483C28.794 29.5453 29.3454 28.7261 29.3423 27.9708C29.3393 27.2491 28.858 27.1151 27.6456 27.3313C25.9701 27.6084 24.8613 27.1851 24.8552 25.5011C24.8521 23.5338 26.2991 21.201 28.66 19.8398Z" fill="white"/>
</svg>
