<svg width="89" height="16" viewBox="0 0 89 16" fill="none" xmlns="http://www.w3.org/2000/svg">
<g clip-path="url(#clip0_101_2)">
<path d="M0 3.63465V2.77571H0.125706C0.207408 2.69085 0.274183 2.59209 0.323066 2.4838C0.463972 2.16965 0.531142 1.8259 0.519169 1.4802V0.773682H2.01382V2.77571H2.29289V3.63465H1.93839V3.13479H0.367063V3.63982L0 3.63465ZM0.524197 2.77571H1.65555V1.12759H0.884972V1.4802C0.894154 1.82398 0.832909 2.16591 0.705213 2.4838C0.658922 2.58958 0.597949 2.68791 0.524197 2.77571Z" fill="black"/>
<path d="M2.80078 3.13479V0.773682H4.42114V1.12759H3.16408V1.73336H4.16345V2.08598H3.16408V2.77571H4.45258V3.13479H2.80078Z" fill="black"/>
<path d="M5.45812 3.13475V1.13272H4.77051V0.778809H6.50527V1.13272H5.81765V3.13475H5.45812Z" fill="black"/>
<path d="M8.71154 2.45661L8.94157 2.69169C8.82748 2.83818 8.6829 2.95656 8.51843 3.03814C8.354 3.11972 8.17385 3.16243 7.99125 3.16314C7.83186 3.16738 7.6733 3.13844 7.52509 3.07806C7.37691 3.01768 7.24214 2.92711 7.12889 2.81181C7.01823 2.69927 6.93037 2.56529 6.87039 2.41764C6.81044 2.26998 6.77954 2.11158 6.77954 1.95158C6.77954 1.79159 6.81044 1.63318 6.87039 1.48553C6.93037 1.33787 7.01823 1.2039 7.12889 1.09135C7.24214 0.976048 7.37691 0.885484 7.52509 0.825104C7.6733 0.764728 7.83186 0.735791 7.99125 0.740031C8.243 0.736014 8.48921 0.816258 8.69267 0.968648C8.77892 1.03393 8.857 1.10984 8.92525 1.19468L8.69519 1.42976C8.64706 1.36225 8.58846 1.30333 8.52172 1.25539C8.36898 1.13728 8.18238 1.07459 7.99125 1.07715C7.76553 1.07715 7.54907 1.16927 7.38948 1.33326C7.22988 1.49725 7.14021 1.71967 7.14021 1.95158C7.14021 2.1835 7.22988 2.40591 7.38948 2.5699C7.54907 2.73389 7.76553 2.82602 7.99125 2.82602C8.18524 2.82796 8.37425 2.76292 8.528 2.64131C8.59924 2.59129 8.66137 2.52877 8.71154 2.45661Z" fill="black"/>
<path d="M9.46436 3.13479V0.773682H9.82512V1.91807L10.8572 0.773682H11.3147L10.4348 1.75015L11.3814 3.13479H10.9389L10.1846 2.02398L9.82388 2.42826V3.13479H9.46436Z" fill="black"/>
<path d="M11.5122 3.13475L12.4286 0.778809H12.8221L13.7385 3.13475H13.3613L13.1313 2.52897H12.1206L11.8881 3.13475H11.5122ZM12.2488 2.19186H13.0031L12.626 1.21667L12.2488 2.19186Z" fill="black"/>
<path d="M14.0061 3.13481L14.5265 2.19192C14.4454 2.15928 14.3708 2.11155 14.3065 2.05113C14.234 1.98462 14.1767 1.90238 14.1389 1.81034C14.101 1.71831 14.0836 1.61879 14.0878 1.51898C14.0854 1.42058 14.1031 1.32275 14.1397 1.23178C14.1763 1.14081 14.231 1.05869 14.3002 0.990701C14.3721 0.920221 14.4569 0.865184 14.5497 0.828811C14.6425 0.792437 14.7415 0.775461 14.8408 0.778871H15.7911V3.13481H15.4303V2.26038H14.886L14.4096 3.13481H14.0061ZM14.8408 1.92326H15.4303V1.11599H14.8358C14.7836 1.11359 14.7315 1.12233 14.6829 1.14168C14.6342 1.16102 14.5899 1.19054 14.5529 1.22836C14.4818 1.30776 14.4423 1.41172 14.4423 1.51962C14.4423 1.62753 14.4818 1.73149 14.5529 1.81089C14.5903 1.84778 14.6348 1.87635 14.6834 1.89479C14.7321 1.91324 14.784 1.92117 14.8358 1.91809L14.8408 1.92326Z" fill="black"/>
<path d="M17.526 2.81192C17.4157 2.6992 17.3281 2.56517 17.2683 2.41754C17.2085 2.26991 17.1777 2.11159 17.1777 1.95169C17.1777 1.79179 17.2085 1.63348 17.2683 1.48584C17.3281 1.33821 17.4157 1.20418 17.526 1.09146C17.7594 0.86511 18.0681 0.739014 18.389 0.739014C18.7099 0.739014 19.0186 0.86511 19.2519 1.09146C19.3626 1.204 19.4505 1.33798 19.5104 1.48564C19.5704 1.63329 19.6013 1.7917 19.6013 1.95169C19.6013 2.11169 19.5704 2.27009 19.5104 2.41775C19.4505 2.5654 19.3626 2.69938 19.2519 2.81192C19.0186 3.03827 18.7099 3.16437 18.389 3.16437C18.0681 3.16437 17.7594 3.03827 17.526 2.81192ZM17.785 1.32654C17.6428 1.47171 17.5541 1.66309 17.5341 1.86799C17.5141 2.07289 17.5639 2.27858 17.6751 2.44991C17.7863 2.62123 17.952 2.74756 18.1438 2.80729C18.3356 2.86702 18.5416 2.85645 18.7267 2.77738C18.9117 2.69832 19.0643 2.55567 19.1584 2.37382C19.2524 2.19196 19.2821 1.98219 19.2423 1.78037C19.2025 1.57854 19.0957 1.39717 18.9401 1.26728C18.7846 1.13738 18.59 1.06702 18.3896 1.06821C18.277 1.06664 18.1653 1.08875 18.0613 1.13317C17.9573 1.1776 17.8633 1.2434 17.785 1.32654Z" fill="black"/>
<path d="M20.2073 3.13479V0.773682H20.5668V1.76695H21.6981V0.773682H22.0589V3.13479H21.6981V2.10148H20.5668V3.13479H20.2073Z" fill="black"/>
<path d="M22.4675 3.11283V2.77571C22.484 2.78356 22.5013 2.7892 22.5191 2.7925C22.56 2.80441 22.6023 2.81049 22.6448 2.81059C22.701 2.81135 22.7559 2.79271 22.8007 2.75763C22.8562 2.70611 22.8992 2.64198 22.9264 2.57034C22.9768 2.43976 23.0082 2.30222 23.0194 2.16219C23.0443 1.93579 23.0556 1.70803 23.0533 1.4802V0.773682H24.6083V3.13479H24.2513V1.13275H23.4166V1.48537C23.4183 1.72049 23.407 1.95552 23.3827 2.18931C23.3669 2.35367 23.3349 2.51596 23.2871 2.67367C23.2549 2.78197 23.2033 2.88315 23.135 2.97204C23.0845 3.03854 23.0189 3.09131 22.944 3.12574C22.8703 3.15542 22.7918 3.16991 22.7127 3.16837C22.6528 3.16946 22.5931 3.16163 22.5354 3.14512L22.4675 3.11283Z" fill="black"/>
<path d="M25.0684 3.13475L25.9848 0.778809H26.3782L27.2971 3.13475H26.92L26.69 2.52897H25.6755L25.4455 3.13475H25.0684ZM25.805 2.19186H26.5592L26.1821 1.21667L25.805 2.19186Z" fill="black"/>
<path d="M27.7559 3.1348V0.773689H28.1166V2.50706L29.3737 0.773689H29.7005V3.1348H29.3423V1.39626L28.0852 3.1348H27.7559ZM28.2473 0.00516566H28.4988C28.4981 0.0363413 28.5036 0.0673369 28.5149 0.0962656C28.5262 0.125194 28.5432 0.151452 28.5647 0.173441C28.5862 0.195431 28.6118 0.212693 28.6401 0.224178C28.6683 0.235662 28.6985 0.241127 28.7288 0.240243C28.759 0.24095 28.7891 0.235352 28.8172 0.223788C28.8453 0.212225 28.8707 0.194935 28.8921 0.172963C28.9135 0.150992 28.9303 0.124795 28.9416 0.0959553C28.9528 0.0671149 28.9583 0.0362296 28.9576 0.00516566H29.209C29.2107 0.0677666 29.1997 0.130041 29.1767 0.188062C29.1538 0.246084 29.1194 0.298595 29.0758 0.342282C28.9823 0.428785 28.8609 0.476649 28.7351 0.476649C28.6093 0.476649 28.4879 0.428785 28.3944 0.342282C28.3474 0.299431 28.31 0.246677 28.2846 0.187613C28.2592 0.128548 28.2465 0.0645593 28.2473 0V0.00516566Z" fill="black"/>
<path d="M30.4587 3.13479V0.773682H30.8183V1.76695H31.9496V0.773682H32.3091V3.13479H31.9496V2.10148H30.8183V3.13479H30.4587Z" fill="black"/>
<path d="M32.8811 2.28876V1.98523H33.9296V2.28876H32.8811Z" fill="black"/>
<path d="M34.5027 3.13479V0.773682H34.8634V2.77571H35.698V0.773682H36.0587V2.77571H36.8936V0.773682H37.2543V3.13479H34.5027Z" fill="black"/>
<path d="M38.0073 3.13479V0.773682H38.3667V1.91807L39.3987 0.773682H39.8575L38.9776 1.75015L39.923 3.13479H39.4804L38.7264 2.02398L38.3653 2.42826V3.13479H38.0073Z" fill="black"/>
<path d="M40.485 2.81192C40.3742 2.69938 40.2865 2.5654 40.2264 2.41775C40.1666 2.27009 40.1357 2.11169 40.1357 1.95169C40.1357 1.7917 40.1666 1.63329 40.2264 1.48564C40.2865 1.33798 40.3742 1.204 40.485 1.09146C40.7184 0.86511 41.0271 0.739014 41.3482 0.739014C41.6689 0.739014 41.9775 0.86511 42.211 1.09146C42.3215 1.20418 42.4091 1.33821 42.4689 1.48584C42.5283 1.63348 42.5592 1.79179 42.5592 1.95169C42.5592 2.11159 42.5283 2.26991 42.4689 2.41754C42.4091 2.56517 42.3215 2.6992 42.211 2.81192C41.9775 3.03827 41.6689 3.16437 41.3482 3.16437C41.0271 3.16437 40.7184 3.03827 40.485 2.81192ZM40.744 1.32654C40.6022 1.47159 40.5136 1.66277 40.4938 1.86739C40.4739 2.07202 40.524 2.27739 40.6352 2.44839C40.746 2.6194 40.9116 2.74543 41.1033 2.80494C41.2948 2.86444 41.5006 2.85373 41.6854 2.77464C41.8701 2.69555 42.0222 2.55298 42.1159 2.37131C42.21 2.18964 42.2392 1.98014 42.1995 1.77862C42.1596 1.57711 42.0528 1.3961 41.8973 1.26652C41.7418 1.13694 41.5477 1.06684 41.3475 1.06821C41.235 1.06651 41.1235 1.08857 41.0197 1.133C40.9159 1.17744 40.8219 1.24331 40.744 1.32654Z" fill="black"/>
<path d="M42.7566 3.11283V2.77571C42.7727 2.78355 42.7902 2.7892 42.808 2.79251C42.849 2.80451 42.8913 2.81059 42.9336 2.81059C42.99 2.81135 43.0448 2.79271 43.0894 2.75763C43.1452 2.70612 43.1882 2.64198 43.2154 2.57034C43.2657 2.43976 43.297 2.30222 43.3084 2.16219C43.3332 1.93579 43.3447 1.70803 43.3423 1.48021V0.773682H44.8973V3.13479H44.5403V1.13275H43.7057V1.48537C43.7074 1.72049 43.696 1.95552 43.6714 2.18931C43.6557 2.35368 43.6238 2.51597 43.5761 2.67367C43.5425 2.78034 43.4901 2.87974 43.4216 2.96687C43.3709 3.03384 43.3047 3.08669 43.2291 3.12058C43.1559 3.15035 43.0777 3.16484 42.9991 3.1632C42.9393 3.16429 42.8795 3.15646 42.8217 3.13995L42.7566 3.11283Z" fill="black"/>
<path d="M45.3599 3.13475L46.2764 0.778809H46.6697L47.5862 3.13475H47.209L46.979 2.52897H45.9647L45.7357 3.13475H45.3599ZM46.0967 2.19186H46.8507L46.4739 1.21667L46.0967 2.19186Z" fill="black"/>
<path d="M48.7324 3.13479V0.773682H50.5866V3.13479H50.2273V1.13275H49.0958V3.13479H48.7324Z" fill="black"/>
<path d="M51.3408 3.13473V0.773619H52.2574C52.3588 0.770719 52.4595 0.788645 52.5542 0.826352C52.6486 0.864055 52.7349 0.920782 52.8078 0.993199C52.8773 1.06349 52.9324 1.14725 52.97 1.2396C53.0076 1.33195 53.0268 1.43106 53.0268 1.53117C53.0268 1.63127 53.0076 1.73038 52.97 1.82273C52.9324 1.91508 52.8773 1.99884 52.8078 2.06913C52.7349 2.14155 52.6486 2.19827 52.5542 2.23598C52.4595 2.27368 52.3588 2.29161 52.2574 2.28871H51.7005V3.13473H51.3408ZM51.7005 1.95676H52.2574C52.3111 1.95787 52.3645 1.94767 52.4142 1.92679C52.4639 1.90591 52.5089 1.87479 52.5465 1.83535C52.5848 1.79611 52.615 1.74951 52.6359 1.6982C52.6563 1.64689 52.6671 1.59188 52.6671 1.53633C52.6671 1.48078 52.6563 1.42578 52.6359 1.37447C52.615 1.32316 52.5848 1.27655 52.5465 1.23732C52.5089 1.19787 52.4639 1.16675 52.4142 1.14587C52.3645 1.12499 52.3111 1.11479 52.2574 1.1159H51.7005V1.95676Z" fill="black"/>
<path d="M53.7973 2.81192C53.6868 2.6992 53.5991 2.56517 53.5393 2.41754C53.4795 2.26991 53.449 2.11159 53.449 1.95169C53.449 1.79179 53.4795 1.63348 53.5393 1.48584C53.5991 1.33821 53.6868 1.20418 53.7973 1.09146C54.0307 0.86511 54.3393 0.739014 54.66 0.739014C54.9811 0.739014 55.2898 0.86511 55.5232 1.09146C55.6337 1.204 55.7217 1.33798 55.7818 1.48564C55.8416 1.63329 55.8725 1.7917 55.8725 1.95169C55.8725 2.11169 55.8416 2.27009 55.7818 2.41775C55.7217 2.5654 55.6337 2.69938 55.5232 2.81192C55.2898 3.03827 54.9811 3.16437 54.66 3.16437C54.3393 3.16437 54.0307 3.03827 53.7973 2.81192ZM54.0562 1.32654C53.9141 1.47171 53.8255 1.66309 53.8053 1.86799C53.7852 2.07289 53.8352 2.27858 53.9464 2.44991C54.0575 2.62123 54.2231 2.74756 54.4149 2.80729C54.6066 2.86702 54.8129 2.85645 54.9979 2.77738C55.183 2.69832 55.3354 2.55567 55.4295 2.37382C55.5235 2.19196 55.5531 1.98219 55.5134 1.78037C55.4735 1.57854 55.3667 1.39717 55.2112 1.26728C55.0557 1.13738 54.8612 1.06702 54.6607 1.06821C54.5482 1.06657 54.4364 1.08864 54.3326 1.13307C54.2285 1.17749 54.1344 1.24334 54.0562 1.32654Z" fill="black"/>
<path d="M56.4788 3.13479V0.773682H57.9518V1.12759H56.8381V3.13479H56.4788Z" fill="black"/>
<path d="M58.4434 3.13478V0.773674H59.3609C59.462 0.770508 59.5627 0.788314 59.6575 0.826041C59.7518 0.863764 59.8378 0.920634 59.9104 0.993251C59.9799 1.06337 60.0353 1.14707 60.0729 1.23944C60.1109 1.33182 60.1303 1.43101 60.1303 1.53122C60.1303 1.63142 60.1109 1.73062 60.0729 1.82299C60.0353 1.91537 59.9799 1.99907 59.9104 2.06918C59.8378 2.1418 59.7518 2.19867 59.6575 2.23639C59.5627 2.27412 59.462 2.29193 59.3609 2.28876H58.8041V3.13478H58.4434ZM58.8041 1.95681H59.3609C59.4167 1.95998 59.4721 1.95146 59.5245 1.93176C59.5769 1.91207 59.6249 1.88161 59.6652 1.84226C59.7058 1.80291 59.7381 1.75549 59.7599 1.70289C59.7821 1.6503 59.7935 1.59364 59.7935 1.53638C59.7935 1.47912 59.7821 1.42247 59.7599 1.36987C59.7381 1.31728 59.7058 1.26986 59.6652 1.23051C59.6249 1.19116 59.5769 1.1607 59.5245 1.14101C59.4721 1.12131 59.4167 1.11279 59.3609 1.11596H58.8041V1.95681Z" fill="black"/>
<path d="M60.2119 3.13475L61.1281 0.778809H61.5231L62.4382 3.13475H62.0611L61.832 2.52897H60.8164L60.5877 3.13475H60.2119ZM60.9484 2.19186H61.7027L61.3256 1.21667L60.9484 2.19186Z" fill="black"/>
<path d="M62.8972 3.13479V0.773682H63.2253L64.0928 1.91807L64.96 0.773682H65.2945V3.13479H64.9338V1.39625L64.0928 2.48897L63.2579 1.39495V3.13479H62.8972Z" fill="black"/>
<path d="M66.041 3.13479V0.773682H66.3691L67.2366 1.91807L68.1051 0.773682H68.437V3.13479H68.0726V1.39625L67.2366 2.48897L66.4017 1.39495V3.13479H66.041Z" fill="black"/>
<path d="M69.1912 3.13479V0.773682H69.5519V2.50705L70.8089 0.773682H71.1371V3.13479H70.7764V1.39625L69.5193 3.12962L69.1912 3.13479Z" fill="black"/>
<path d="M71.8875 3.13482V0.773713H72.804C72.9054 0.770373 73.0065 0.788097 73.1012 0.825827C73.1956 0.863557 73.2819 0.920513 73.3544 0.993293C73.424 1.06359 73.479 1.14734 73.5167 1.2397C73.5543 1.33205 73.5734 1.43115 73.5734 1.53126C73.5734 1.63136 73.5543 1.73047 73.5167 1.82282C73.479 1.91517 73.424 1.99893 73.3544 2.06922C73.2819 2.142 73.1956 2.19896 73.1012 2.23669C73.0065 2.27442 72.9054 2.29214 72.804 2.2888H72.2471V3.13482H71.8875ZM72.2471 1.95685H72.804C72.8577 1.95799 72.9115 1.94781 72.9615 1.92693C73.0112 1.90605 73.0565 1.87492 73.0945 1.83544C73.1707 1.75571 73.2134 1.64831 73.2134 1.53643C73.2134 1.42454 73.1707 1.31715 73.0945 1.23741C73.0565 1.19793 73.0112 1.1668 72.9615 1.14592C72.9115 1.12504 72.8577 1.11486 72.804 1.116H72.2471V1.95685Z" fill="black"/>
<path d="M74.3454 2.81192C74.2345 2.69938 74.1469 2.5654 74.0868 2.41775C74.027 2.27009 73.9961 2.11169 73.9961 1.95169C73.9961 1.7917 74.027 1.63329 74.0868 1.48564C74.1469 1.33798 74.2345 1.204 74.3454 1.09146C74.5788 0.86511 74.8874 0.739014 75.2085 0.739014C75.5292 0.739014 75.8379 0.86511 76.0713 1.09146C76.1818 1.20418 76.2691 1.33821 76.3289 1.48584C76.3887 1.63348 76.4196 1.79179 76.4196 1.95169C76.4196 2.11159 76.3887 2.26991 76.3289 2.41754C76.2691 2.56517 76.1818 2.6992 76.0713 2.81192C75.8379 3.03827 75.5292 3.16437 75.2085 3.16437C74.8874 3.16437 74.5788 3.03827 74.3454 2.81192ZM74.603 1.33042C74.4609 1.47558 74.3722 1.66697 74.3521 1.87187C74.3323 2.07677 74.382 2.28246 74.4931 2.45378C74.6043 2.62511 74.7702 2.75143 74.962 2.81116C75.1538 2.87089 75.3596 2.86032 75.5447 2.78126C75.7298 2.70219 75.8826 2.55954 75.9766 2.37769C76.0706 2.19584 76.1002 1.98607 76.0602 1.78424C76.0206 1.58241 75.9138 1.40105 75.7583 1.27115C75.6028 1.14126 75.408 1.0709 75.2078 1.07209C75.096 1.07047 74.9852 1.09219 74.8817 1.13593C74.7786 1.17967 74.6849 1.24452 74.607 1.32654L74.603 1.33042Z" fill="black"/>
<path d="M77.0291 3.13483V0.773722H77.9466C78.1279 0.766589 78.3053 0.831852 78.4406 0.955846C78.5021 1.01053 78.5511 1.07822 78.5844 1.15426C78.6179 1.23029 78.6351 1.31286 78.6344 1.39629C78.6351 1.53265 78.5847 1.6641 78.4934 1.76312C78.4547 1.80701 78.4077 1.84257 78.3553 1.86774C78.4285 1.89733 78.4954 1.94118 78.5525 1.9969C78.6156 2.05106 78.666 2.11913 78.6999 2.19605C78.7338 2.27298 78.7506 2.35678 78.7486 2.44123C78.7493 2.53332 78.7301 2.62441 78.6928 2.70825C78.6559 2.79208 78.6015 2.86666 78.5337 2.92688C78.3862 3.06688 78.1914 3.14159 77.9906 3.13483H77.0291ZM77.3898 1.73858H77.9466C77.9899 1.74066 78.0329 1.73384 78.0735 1.71854C78.1142 1.70323 78.1515 1.67974 78.183 1.64945C78.2411 1.58757 78.2737 1.50491 78.2737 1.4189C78.2737 1.33288 78.2411 1.25022 78.183 1.18834C78.1515 1.15805 78.1142 1.13456 78.0735 1.11926C78.0329 1.10395 77.9899 1.09714 77.9466 1.09922H77.3898V1.73858ZM77.3898 2.8158H77.9906C78.043 2.8182 78.095 2.80945 78.1437 2.79011C78.1924 2.77077 78.2364 2.74125 78.2734 2.70343C78.3093 2.6678 78.3375 2.62497 78.3563 2.57762C78.3751 2.53028 78.3842 2.47944 78.3829 2.42831C78.3842 2.37699 78.3748 2.32598 78.356 2.27843C78.3372 2.23088 78.3093 2.18781 78.2734 2.1519C78.2361 2.11481 78.1918 2.08586 78.1431 2.06677C78.0944 2.04769 78.0426 2.03886 77.9906 2.04082H77.3847L77.3898 2.8158Z" fill="black"/>
<path d="M78.9963 3.13475L79.9139 0.778809H80.3062L81.2237 3.13475H80.8465L80.6178 2.52897H79.6022L79.3735 3.13475H78.9963ZM79.7329 2.19186H80.4872L80.11 1.21667L79.7329 2.19186Z" fill="black"/>
<path d="M81.6802 3.13479V0.773682H82.0395V1.76695H83.171V0.773682H83.5317V3.13479H83.171V2.10148H82.0395V3.13479H81.6802Z" fill="black"/>
<path d="M84.2834 3.13479V0.773682H84.6431V2.50705L85.9002 0.773682H86.227V3.13479H85.8663V1.39625L84.6092 3.12962L84.2834 3.13479Z" fill="black"/>
<path d="M86.79 3.13472L87.3106 2.19182C87.2297 2.15947 87.1554 2.1117 87.0916 2.05103C87.0187 1.98482 86.961 1.90266 86.923 1.81058C86.8851 1.7185 86.8676 1.61883 86.8716 1.51888C86.8696 1.42052 86.8874 1.32279 86.924 1.23186C86.9606 1.14094 87.0151 1.05879 87.0842 0.9906C87.1564 0.92048 87.2411 0.86567 87.3338 0.82932C87.4268 0.79297 87.5255 0.775793 87.6246 0.778773H88.5751V3.13472H88.2144V2.26028H87.67L87.1961 3.13472H86.79ZM87.6246 1.92316H88.2144V1.11589H87.6246C87.5712 1.11278 87.5178 1.12092 87.4674 1.1398C87.4171 1.15868 87.3711 1.18791 87.3324 1.22569C87.2935 1.26348 87.2622 1.30903 87.2411 1.35955C87.2199 1.41008 87.2092 1.46451 87.2092 1.51953C87.2092 1.57454 87.2199 1.62898 87.2411 1.6795C87.2622 1.73003 87.2935 1.77558 87.3324 1.81336C87.3711 1.85115 87.4171 1.88038 87.4674 1.89926C87.5178 1.91814 87.5712 1.92627 87.6246 1.92316Z" fill="black"/>
<path d="M0.25 15.6865V6.65686H2.04824V10.2063H5.64469V6.65686H7.44293V15.6921H5.64469V12.0152H2.04824V15.6939L0.25 15.6865Z" fill="black"/>
<path d="M9.58301 15.6865V6.65686H15.8031V8.46389H11.3777V10.2063H14.8464V11.9487H11.3777V13.885H15.9236V15.6921L9.58301 15.6865Z" fill="black"/>
<path d="M17.5383 15.6865V6.65686H19.3366V13.885H23.2244V15.6921L17.5383 15.6865Z" fill="black"/>
<path d="M24.5369 15.6865V6.65686H26.3351V13.885H30.2229V15.6921L24.5369 15.6865Z" fill="black"/>
<path d="M31.8287 14.4984C30.991 13.6052 30.5229 12.413 30.5229 11.1726C30.5229 9.93211 30.991 8.73994 31.8287 7.84674C32.2531 7.40874 32.7576 7.06121 33.313 6.82404C33.8686 6.58691 34.4641 6.46484 35.0656 6.46484C35.6671 6.46484 36.2625 6.58691 36.818 6.82404C37.3735 7.06121 37.878 7.40874 38.3025 7.84674C39.1401 8.73994 39.6083 9.93211 39.6083 11.1726C39.6083 12.413 39.1401 13.6052 38.3025 14.4984C37.878 14.9364 37.3735 15.2839 36.818 15.5211C36.2625 15.7582 35.6671 15.8803 35.0656 15.8803C34.4641 15.8803 33.8686 15.7582 33.313 15.5211C32.7576 15.2839 32.2531 14.9364 31.8287 14.4984ZM33.1576 9.11054C32.6535 9.67084 32.3735 10.4058 32.3735 11.1689C32.3735 11.9319 32.6535 12.6669 33.1576 13.2272C33.4028 13.4944 33.6983 13.7073 34.0265 13.8528C34.3546 13.9983 34.7082 14.0734 35.0656 14.0734C35.4229 14.0734 35.7766 13.9983 36.1047 13.8528C36.4328 13.7073 36.7284 13.4944 36.9735 13.2272C37.4776 12.6669 37.7577 11.9319 37.7577 11.1689C37.7577 10.4058 37.4776 9.67084 36.9735 9.11054C36.7284 8.84334 36.4328 8.63044 36.1047 8.48494C35.7766 8.33941 35.4229 8.26434 35.0656 8.26434C34.7082 8.26434 34.3546 8.33941 34.0265 8.48494C33.6983 8.63044 33.4028 8.84334 33.1576 9.11054Z" fill="black"/>
<path d="M45.2344 15.6865L42.4832 6.65686H44.3374L46.0724 12.7228H46.1318L47.8671 6.65686H49.5414L51.2767 12.7228H51.3358L53.0711 6.65686H54.9254L52.1741 15.6921H50.4387L48.741 9.81826H48.6692L46.9698 15.6921L45.2344 15.6865Z" fill="black"/>
<path d="M56.7146 14.4984C55.876 13.6056 55.4075 12.4133 55.4075 11.1725C55.4075 9.93176 55.876 8.73946 56.7146 7.84669C57.1391 7.40846 57.6432 7.06072 58.1987 6.82346C58.7542 6.58616 59.35 6.46399 59.9515 6.46399C60.553 6.46399 61.1488 6.58616 61.7043 6.82346C62.2598 7.06072 62.7639 7.40846 63.1884 7.84669C64.027 8.73946 64.4956 9.93176 64.4956 11.1725C64.4956 12.4133 64.027 13.6056 63.1884 14.4984C62.7639 14.9366 62.2598 15.2843 61.7043 15.5216C61.1488 15.7589 60.553 15.881 59.9515 15.881C59.35 15.881 58.7542 15.7589 58.1987 15.5216C57.6432 15.2843 57.1391 14.9366 56.7146 14.4984ZM58.0399 9.11049C57.5371 9.67139 57.2577 10.4062 57.2577 11.1688C57.2577 11.9315 57.5371 12.6663 58.0399 13.2272C58.2854 13.4944 58.5812 13.7073 58.9094 13.8529C59.2375 13.9984 59.5911 14.0735 59.9488 14.0735C60.3062 14.0735 60.6602 13.9984 60.9883 13.8529C61.3164 13.7073 61.6123 13.4944 61.8578 13.2272C62.3619 12.6669 62.6417 11.9319 62.6417 11.1688C62.6417 10.4058 62.3619 9.67079 61.8578 9.11049C61.6123 8.84326 61.3164 8.63032 60.9883 8.48476C60.6602 8.33922 60.3062 8.26416 59.9488 8.26416C59.5911 8.26416 59.2375 8.33922 58.9094 8.48476C58.5812 8.63032 58.2854 8.84326 58.0399 9.11049Z" fill="black"/>
<path d="M66.1123 15.6865V6.65686H69.8221C70.7138 6.65686 71.4254 6.93403 71.9564 7.48833C72.4877 8.04263 72.7524 8.77679 72.7514 9.69076C72.7514 10.5764 72.5116 11.2773 72.032 11.7935C71.8335 12.026 71.588 12.2114 71.3126 12.3367L73.0479 15.6921H71.0701L69.5739 12.7228H67.8997V15.6921L66.1123 15.6865ZM67.9104 10.9103H69.7643C69.9168 10.9161 70.0689 10.8886 70.21 10.8297C70.3514 10.7708 70.479 10.6817 70.5845 10.5684C70.789 10.3218 70.9012 10.0083 70.9012 9.68429C70.9012 9.36029 70.789 9.04686 70.5845 8.80019C70.479 8.68689 70.3514 8.59786 70.21 8.53893C70.0689 8.47999 69.9168 8.45256 69.7643 8.45836H67.9067L67.9104 10.9103Z" fill="black"/>
<path d="M74.5476 15.6865V6.65686H76.3457V13.885H80.2298V15.6921L74.5476 15.6865Z" fill="black"/>
<path d="M81.5464 15.6865V6.65686H84.6033C85.7694 6.65686 86.8877 7.13283 87.7122 7.98003C88.5367 8.82726 88.9999 9.97633 88.9999 11.1745C88.9999 12.3726 88.5367 13.5217 87.7122 14.3689C86.8877 15.2161 85.7694 15.6921 84.6033 15.6921L81.5464 15.6865ZM83.3445 13.8795H84.6033C84.9458 13.8896 85.2871 13.8259 85.6045 13.6926C85.9218 13.5593 86.2086 13.3592 86.4464 13.1053C86.9173 12.575 87.1782 11.8831 87.1782 11.1652C87.1782 10.4474 86.9173 9.75546 86.4464 9.22516C86.2086 8.97123 85.9218 8.77119 85.6045 8.63786C85.2871 8.50456 84.9458 8.44089 84.6033 8.45096H83.3445V13.8795Z" fill="black"/>
<path d="M59.9016 15.6233C62.3046 15.6233 64.2525 13.6217 64.2525 11.1525C64.2525 8.68331 62.3046 6.68164 59.9016 6.68164C57.4982 6.68164 55.5503 8.68331 55.5503 11.1525C55.5503 13.6217 57.4982 15.6233 59.9016 15.6233Z" fill="black"/>
<path d="M59.4097 14.6953L56.8593 13.1732C56.8274 13.1542 56.8012 13.127 56.7827 13.0943C56.7642 13.0616 56.7542 13.0244 56.7542 12.9866L56.7461 9.95622C56.7458 9.91802 56.7555 9.88042 56.7736 9.84722C56.7921 9.81402 56.8186 9.78638 56.8509 9.76712C56.8828 9.74788 56.9194 9.73768 56.9567 9.73755C56.994 9.73742 57.0302 9.74738 57.0625 9.76645L59.6136 11.2904C59.6458 11.3097 59.6724 11.3374 59.6908 11.3708C59.7093 11.4041 59.7187 11.4419 59.718 11.4802L59.7268 14.5099C59.7264 14.5479 59.7167 14.5852 59.6979 14.618C59.6791 14.6508 59.6525 14.6779 59.6203 14.6967C59.5881 14.7155 59.5518 14.7253 59.5148 14.725C59.4779 14.7248 59.4416 14.7146 59.4097 14.6953Z" fill="#662D8F"/>
<path d="M59.7852 11.0305L57.2338 9.50709C57.2019 9.48799 57.1753 9.46063 57.1569 9.42769C57.1384 9.39479 57.1287 9.35749 57.1287 9.31953C57.1287 9.28153 57.1384 9.24423 57.1569 9.21133C57.1753 9.17839 57.2019 9.15103 57.2338 9.13193L59.8037 7.60729C59.8359 7.58816 59.8725 7.57812 59.9095 7.57812C59.9468 7.57812 59.9834 7.58816 60.0156 7.60729L62.5671 9.13129C62.599 9.15029 62.6255 9.17762 62.644 9.21049C62.6624 9.24336 62.6722 9.28062 62.6722 9.31856C62.6722 9.35649 62.6624 9.39376 62.644 9.42666C62.6255 9.45953 62.599 9.48682 62.5671 9.50582L59.9995 11.0305C59.9673 11.0503 59.93 11.0608 59.8924 11.0608C59.8547 11.0608 59.8178 11.0503 59.7852 11.0305Z" fill="#60A9E0"/>
<path d="M63.0481 9.95319L63.0558 12.9854C63.0565 13.0239 63.0471 13.0617 63.0286 13.0951C63.0101 13.1285 62.9833 13.1561 62.9507 13.1752L60.3808 14.7005C60.3485 14.7196 60.3119 14.7295 60.2746 14.7294C60.2377 14.7293 60.2011 14.7191 60.1689 14.6998C60.1369 14.6806 60.1104 14.6529 60.0919 14.6197C60.0735 14.5865 60.0641 14.5489 60.0644 14.5107L60.0557 11.4804C60.0553 11.442 60.0651 11.4041 60.0835 11.3708C60.1024 11.3374 60.1292 11.3098 60.1615 11.2906L62.7314 9.76593C62.7636 9.74699 62.7999 9.73703 62.8368 9.73706C62.8738 9.73706 62.9101 9.74706 62.9423 9.76599C62.9742 9.78496 63.0007 9.81223 63.0195 9.84509C63.038 9.87793 63.0478 9.91523 63.0481 9.95319Z" fill="#FF9D00"/>
<path d="M58.7853 11.6657L58.7796 13.5927L58.4115 13.3744L58.4139 12.5678L57.8056 12.2072L57.804 13.0138L57.4355 12.7956L57.4413 10.8685L57.8087 11.0868L57.807 11.8276L58.4145 12.1876L58.4169 11.4474L58.7853 11.6657Z" fill="white"/>
<path d="M60.2958 8.26587L61.4158 9.3926L61.0464 9.6083L60.2716 9.2996C60.0912 9.22684 59.9257 9.15787 59.7366 9.06614C59.8753 9.1857 59.9935 9.28504 60.1097 9.39637L60.6158 9.8658L60.2457 10.0885L58.3865 9.40587L58.7485 9.1895L59.4807 9.48937C59.6949 9.5767 59.9203 9.67347 60.0963 9.74877C59.9626 9.6349 59.8172 9.50647 59.6654 9.37234L59.1771 8.9295L59.5364 8.7144L60.2914 9.01934C60.5006 9.1041 60.686 9.18507 60.8765 9.2724C60.7354 9.15724 60.592 9.0326 60.4452 8.90674L59.9529 8.46894L60.2958 8.26587Z" fill="white"/>
<path d="M61.7849 11.1641C61.9877 11.0439 62.1318 11.0046 62.2369 11.0015L62.1489 11.4323C62.0176 11.438 61.8903 11.4791 61.7795 11.5512C61.6065 11.6544 61.5226 11.7999 61.5226 11.9055C61.5226 12.039 61.6206 12.0403 61.852 12.0055C62.1651 11.9568 62.3101 12.063 62.3108 12.3572C62.3108 12.7077 62.0868 13.1392 61.6002 13.4276C61.3983 13.5478 61.1981 13.601 61.0984 13.5953L61.1793 13.1594C61.3358 13.1555 61.489 13.1097 61.623 13.0265C61.8077 12.9171 61.9044 12.7697 61.9038 12.6337C61.9031 12.4977 61.8188 12.4787 61.6059 12.5179C61.3117 12.5679 61.1165 12.4913 61.1132 12.1877C61.1132 11.8277 61.3677 11.407 61.7849 11.1641Z" fill="white"/>
</g>
<defs>
<clipPath id="clip0_101_2">
<rect width="89" height="16" fill="white"/>
</clipPath>
</defs>
</svg>
